:FULLY-SPECIFIED
:FORCE-ALL-JOINTS-BE-3DOF
:DEGREES
408
root 7.15659 13.7926 -34.2399 159.729 75.4108 153.407
lfemur 17.9176 -2.59896 -10.1108
ltibia 24.847 0 0
lfoot -23.7036 33.368 0
ltoes -25.9544 0 0
rfemur -66.4881 -15.7382 8.44429
rtibia 79.0764 0 0
rfoot -13.952 12.733 0
rtoes 8.43447 0 0
lowerback 8.47267 4.99318 -11.3386
upperback -2.46124 5.34247 -1.27845
thorax -8.35868 3.14259 4.08131
lowerneck 0.471545 -11.7434 -11.0029
upperneck 3.23307 -15.9614 9.39042
head 2.51815 -7.97083 3.99214
lclavicle -1.25334e-14 1.98004e-14 0
lhumerus -70.0226 -20.3695 106.362
lradius 100.309 0 0
lwrist 50.8007 0 0
lhand -9.79719 42.8346 0
lfingers 7.12502 0 0
lthumb 16.1789 72.1793 0
rclavicle -1.25334e-14 1.98004e-14 0
rhumerus 49.3811 -4.42898 -59.9494
rradius 20.0495 0 0
rwrist 18.9743 0 0
rhand -21.9018 -33.5316 0
rfingers 7.12502 0 0
rthumb 4.50355 -63.4632 0
409
root 7.15662 13.7919 -34.2413 159.948 75.3914 153.608
lfemur 17.8111 -2.60653 -10.0647
ltibia 24.9977 0 0
lfoot -23.7652 33.3805 0
ltoes -25.7965 0 0
rfemur -66.4879 -15.7534 8.46627
rtibia 79.0688 0 0
rfoot -13.9566 12.7278 0
rtoes 8.28428 0 0
lowerback 8.47003 4.97552 -11.3067
upperback -2.46693 5.32332 -1.25932
thorax -8.35878 3.13237 4.08808
lowerneck 0.458899 -11.7322 -11.0139
upperneck 3.21129 -15.9443 9.39167
head 2.5129 -7.96224 3.99512
lclavicle -1.34482e-14 1.99211e-14 0
lhumerus -70.0344 -20.3408 106.37
lradius 100.297 0 0
lwrist 50.7865 0 0
lhand -9.78068 42.8024 0
lfingers 7.12502 0 0
lthumb 16.1948 72.1458 0
rclavicle -1.34482e-14 1.99211e-14 0
rhumerus 49.3993 -4.42239 -59.9212
rradius 20.0492 0 0
rwrist 18.9545 0 0
rhand -21.8566 -33.5856 0
rfingers 7.12502 0 0
rthumb 4.54725 -63.5163 0
410
root 7.15665 13.7912 -34.2427 160.167 75.3719 153.808
lfemur 17.7046 -2.6141 -10.0186
ltibia 25.1484 0 0
lfoot -23.8269 33.393 0
ltoes -25.6385 0 0
rfemur -66.4876 -15.7686 8.48824
rtibia 79.0612 0 0
rfoot -13.9612 12.7226 0
rtoes 8.13409 0 0
lowerback 8.46739 4.95787 -11.2748
upperback -2.47262 5.30417 -1.24018
thorax -8.35887 3.12216 4.09485
lowerneck 0.446254 -11.721 -11.0249
upperneck 3.18952 -15.9272 9.39292
head 2.50765 -7.95365 3.9981
lclavicle -1.43629e-14 2.00418e-14 0
lhumerus -70.0461 -20.312 106.378
lradius 100.286 0 0
lwrist 50.7723 0 0
lhand -9.76416 42.7703 0
lfingers 7.12502 0 0
lthumb 16.2107 72.1124 0
rclavicle -1.43629e-14 2.00418e-14 0
rhumerus 49.4175 -4.4158 -59.8929
rradius 20.0489 0 0
rwrist 18.9348 0 0
rhand -21.8113 -33.6396 0
rfingers 7.12502 0 0
rthumb 4.59095 -63.5693 0
411
root 7.15668 13.7905 -34.2441 160.385 75.3524 154.009
lfemur 17.598 -2.62168 -9.97258
ltibia 25.299 0 0
lfoot -23.8885 33.4056 0
ltoes -25.4805 0 0
rfemur -66.4874 -15.7837 8.51022
rtibia 79.0535 0 0
rfoot -13.9658 12.7175 0
rtoes 7.9839 0 0
lowerback 8.46476 4.94021 -11.2428
upperback -2.47832 5.28502 -1.22105
thorax -8.35897 3.11194 4.10163
lowerneck 0.433608 -11.7098 -11.0358
upperneck 3.16774 -15.91 9.39418
head 2.50239 -7.94505 4.00109
lclavicle -1.52777e-14 2.01624e-14 0
lhumerus -70.0579 -20.2833 106.387
lradius 100.275 0 0
lwrist 50.7581 0 0
lhand -9.74765 42.7381 0
lfingers 7.12502 0 0
lthumb 16.2267 72.0789 0
rclavicle -1.52777e-14 2.01624e-14 0
rhumerus 49.4356 -4.4092 -59.8647
rradius 20.0487 0 0
rwrist 18.915 0 0
rhand -21.7661 -33.6936 0
rfingers 7.12502 0 0
rthumb 4.63465 -63.6224 0
412
root 7.15671 13.7898 -34.2455 160.604 75.3329 154.209
lfemur 17.4915 -2.62925 -9.92653
ltibia 25.4497 0 0
lfoot -23.9502 33.4181 0
ltoes -25.3225 0 0
rfemur -66.4871 -15.7989 8.53219
rtibia 79.0459 0 0
rfoot -13.9704 12.7123 0
rtoes 7.83371 0 0
lowerback 8.46212 4.92256 -11.2109
upperback -2.48401 5.26587 -1.20191
thorax -8.35906 3.10173 4.1084
lowerneck 0.420963 -11.6986 -11.0468
upperneck 3.14597 -15.8929 9.39543
head 2.49714 -7.93646 4.00407
lclavicle -1.61925e-14 2.02831e-14 0
lhumerus -70.0696 -20.2545 106.395
lradius 100.264 0 0
lwrist 50.7439 0 0
lhand -9.73113 42.706 0
lfingers 7.12502 0 0
lthumb 16.2426 72.0455 0
rclavicle -1.61925e-14 2.02831e-14 0
rhumerus 49.4538 -4.40261 -59.8364
rradius 20.0484 0 0
rwrist 18.8953 0 0
rhand -21.7208 -33.7476 0
rfingers 7.12502 0 0
rthumb 4.67835 -63.6754 0
413
root 7.15674 13.7891 -34.2469 160.823 75.3135 154.41
lfemur 17.385 -2.63682 -9.88047
ltibia 25.6004 0 0
lfoot -24.0118 33.4306 0
ltoes -25.1646 0 0
rfemur -66.4869 -15.8141 8.55417
rtibia 79.0383 0 0
rfoot -13.975 12.7071 0
rtoes 7.68352 0 0
lowerback 8.45948 4.9049 -11.179
upperback -2.4897 5.24672 -1.18278
thorax -8.35916 3.09151 4.11517
lowerneck 0.408317 -11.6874 -11.0578
upperneck 3.12419 -15.8758 9.39668
head 2.49189 -7.92787 4.00705
lclavicle -1.71073e-14 2.04038e-14 0
lhumerus -70.0814 -20.2258 106.403
lradius 100.252 0 0
lwrist 50.7297 0 0
lhand -9.71462 42.6738 0
lfingers 7.12502 0 0
lthumb 16.2585 72.012 0
rclavicle -1.71073e-14 2.04038e-14 0
rhumerus 49.472 -4.39602 -59.8082
rradius 20.0481 0 0
rwrist 18.8755 0 0
rhand -21.6756 -33.8016 0
rfingers 7.12502 0 0
rthumb 4.72205 -63.7285 0
414
root 7.15677 13.7885 -34.2483 161.042 75.294 154.611
lfemur 17.2785 -2.64439 -9.83441
ltibia 25.7511 0 0
lfoot -24.0735 33.4431 0
ltoes -25.0066 0 0
rfemur -66.4866 -15.8292 8.57615
rtibia 79.0307 0 0
rfoot -13.9796 12.7019 0
rtoes 7.53334 0 0
lowerback 8.45684 4.88725 -11.1471
upperback -2.4954 5.22757 -1.16364
thorax -8.35925 3.0813 4.12194
lowerneck 0.395672 -11.6762 -11.0687
upperneck 3.10241 -15.8586 9.39793
head 2.48663 -7.91928 4.01003
lclavicle -1.80221e-14 2.05245e-14 0
lhumerus -70.0931 -20.197 106.411
lradius 100.241 0 0
lwrist 50.7155 0 0
lhand -9.6981 42.6416 0
lfingers 7.12502 0 0
lthumb 16.2744 71.9785 0
rclavicle -1.80221e-14 2.05245e-14 0
rhumerus 49.4902 -4.38943 -59.7799
rradius 20.0479 0 0
rwrist 18.8557 0 0
rhand -21.6303 -33.8556 0
rfingers 7.12502 0 0
rthumb 4.76575 -63.7815 0
415
root 7.1568 13.7878 -34.2497 161.261 75.2745 154.811
lfemur 17.172 -2.65196 -9.78836
ltibia 25.9017 0 0
lfoot -24.1351 33.4556 0
ltoes -24.8486 0 0
rfemur -66.4863 -15.8444 8.59812
rtibia 79.023 0 0
rfoot -13.9842 12.6968 0
rtoes 7.38315 0 0
lowerback 8.45421 4.86959 -11.1152
upperback -2.50109 5.20842 -1.14451
thorax -8.35934 3.07109 4.12871
lowerneck 0.383026 -11.665 -11.0797
upperneck 3.08064 -15.8415 9.39919
head 2.48138 -7.91069 4.01301
lclavicle -1.89369e-14 2.06452e-14 0
lhumerus -70.1049 -20.1683 106.42
lradius 100.23 0 0
lwrist 50.7013 0 0
lhand -9.68158 42.6095 0
lfingers 7.12502 0 0
lthumb 16.2903 71.9451 0
rclavicle -1.89369e-14 2.06452e-14 0
rhumerus 49.5083 -4.38283 -59.7516
rradius 20.0476 0 0
rwrist 18.836 0 0
rhand -21.585 -33.9096 0
rfingers 7.12502 0 0
rthumb 4.80945 -63.8346 0
416
root 7.15684 13.7871 -34.251 161.48 75.2551 155.012
lfemur 17.0655 -2.65953 -9.7423
ltibia 26.0524 0 0
lfoot -24.1968 33.4681 0
ltoes -24.6907 0 0
rfemur -66.4861 -15.8596 8.6201
rtibia 79.0154 0 0
rfoot -13.9888 12.6916 0
rtoes 7.23296 0 0
lowerback 8.45157 4.85194 -11.0833
upperback -2.50678 5.18926 -1.12537
thorax -8.35944 3.06087 4.13548
lowerneck 0.370381 -11.6539 -11.0907
upperneck 3.05886 -15.8244 9.40044
head 2.47613 -7.9021 4.01599
lclavicle -1.98517e-14 2.07659e-14 0
lhumerus -70.1166 -20.1395 106.428
lradius 100.218 0 0
lwrist 50.687 0 0
lhand -9.66507 42.5773 0
lfingers 7.12502 0 0
lthumb 16.3062 71.9116 0
rclavicle -1.98517e-14 2.07659e-14 0
rhumerus 49.5265 -4.37624 -59.7234
rradius 20.0473 0 0
rwrist 18.8162 0 0
rhand -21.5398 -33.9636 0
rfingers 7.12502 0 0
rthumb 4.85316 -63.8876 0
417
root 7.15687 13.7864 -34.2524 161.699 75.2356 155.213
lfemur 16.959 -2.6671 -9.69624
ltibia 26.2031 0 0
lfoot -24.2584 33.4806 0
ltoes -24.5327 0 0
rfemur -66.4858 -15.8747 8.64208
rtibia 79.0078 0 0
rfoot -13.9934 12.6864 0
rtoes 7.08277 0 0
lowerback 8.44893 4.83428 -11.0514
upperback -2.51248 5.17011 -1.10624
thorax -8.35953 3.05066 4.14225
lowerneck 0.357735 -11.6427 -11.1016
upperneck 3.03708 -15.8072 9.40169
head 2.47087 -7.89351 4.01897
lclavicle -2.07665e-14 2.08866e-14 0
lhumerus -70.1284 -20.1108 106.436
lradius 100.207 0 0
lwrist 50.6728 0 0
lhand -9.64855 42.5451 0
lfingers 7.12502 0 0
lthumb 16.3221 71.8781 0
rclavicle -2.07665e-14 2.08866e-14 0
rhumerus 49.5447 -4.36965 -59.6951
rradius 20.0471 0 0
rwrist 18.7964 0 0
rhand -21.4945 -34.0176 0
rfingers 7.12502 0 0
rthumb 4.89686 -63.9407 0
418
root 7.1569 13.7857 -34.2538 161.918 75.2161 155.413
lfemur 16.8525 -2.67468 -9.65019
ltibia 26.3538 0 0
lfoot -24.3201 33.4931 0
ltoes -24.3747 0 0
rfemur -66.4856 -15.8899 8.66405
rtibia 79.0002 0 0
rfoot -13.998 12.6812 0
rtoes 6.93258 0 0
lowerback 8.44629 4.81663 -11.0195
upperback -2.51817 5.15096 -1.0871
thorax -8.35963 3.04044 4.14903
lowerneck 0.34509 -11.6315 -11.1126
upperneck 3.01531 -15.7901 9.40294
head 2.46562 -7.88491 4.02196
lclavicle -2.16813e-14 2.10073e-14 0
lhumerus -70.1401 -20.082 106.444
lradius 100.196 0 0
lwrist 50.6586 0 0
lhand -9.63204 42.513 0
lfingers 7.12502 0 0
lthumb 16.338 71.8447 0
rclavicle -2.16813e-14 2.10073e-14 0
rhumerus 49.5629 -4.36306 -59.6669
rradius 20.0468 0 0
rwrist 18.7767 0 0
rhand -21.4493 -34.0716 0
rfingers 7.12502 0 0
rthumb 4.94056 -63.9937 0
419
root 7.15693 13.7851 -34.2552 162.137 75.1966 155.614
lfemur 16.746 -2.68225 -9.60413
ltibia 26.5044 0 0
lfoot -24.3817 33.5056 0
ltoes -24.2167 0 0
rfemur -66.4853 -15.9051 8.68603
rtibia 78.9925 0 0
rfoot -14.0026 12.6761 0
rtoes 6.7824 0 0
lowerback 8.44366 4.79897 -10.9876
upperback -2.52386 5.13181 -1.06797
thorax -8.35972 3.03023 4.1558
lowerneck 0.332444 -11.6203 -11.1236
upperneck 2.99353 -15.773 9.4042
head 2.46037 -7.87632 4.02494
lclavicle -2.25961e-14 2.1128e-14 0
lhumerus -70.1519 -20.0533 106.453
lradius 100.185 0 0
lwrist 50.6444 0 0
lhand -9.61552 42.4808 0
lfingers 7.12502 0 0
lthumb 16.3539 71.8112 0
rclavicle -2.25961e-14 2.1128e-14 0
rhumerus 49.581 -4.35646 -59.6386
rradius 20.0465 0 0
rwrist 18.7569 0 0
rhand -21.404 -34.1256 0
rfingers 7.12502 0 0
rthumb 4.98426 -64.0468 0
